<mxfile host="app.diagrams.net" agent="Mozilla/5.0 (Windows NT 10.0; Win64; x64) AppleWebKit/537.36 (KHTML, like Gecko) Chrome/131.0.0.0 Safari/537.36" version="26.0.6">
  <diagram name="Page-1" id="BRKdaJomuCxjO_DwOjUR">
    <mxGraphModel dx="1193" dy="756" grid="1" gridSize="10" guides="1" tooltips="1" connect="1" arrows="1" fold="1" page="1" pageScale="1" pageWidth="827" pageHeight="1169" math="0" shadow="0">
      <root>
        <mxCell id="0" />
        <mxCell id="1" parent="0" />
        <mxCell id="8A1eNJOHPVuHeKG6YOcv-30" style="edgeStyle=orthogonalEdgeStyle;rounded=0;orthogonalLoop=1;jettySize=auto;html=1;exitX=0.5;exitY=1;exitDx=0;exitDy=0;entryX=0.5;entryY=0;entryDx=0;entryDy=0;" edge="1" parent="1" source="8A1eNJOHPVuHeKG6YOcv-1" target="8A1eNJOHPVuHeKG6YOcv-29">
          <mxGeometry relative="1" as="geometry" />
        </mxCell>
        <mxCell id="8A1eNJOHPVuHeKG6YOcv-1" value="&lt;div style=&quot;text-align: left;&quot;&gt;&lt;span style=&quot;background-color: transparent; color: light-dark(rgb(0, 0, 0), rgb(255, 255, 255));&quot;&gt;&lt;b&gt;Query&lt;/b&gt;&lt;/span&gt;&lt;/div&gt;&lt;div&gt;&lt;br&gt;&lt;/div&gt;&lt;div&gt;&quot;Deep Reinforcement Learning&quot; AND DRL AND &quot;Active Queue Management&quot; AND AQM&quot;&lt;/div&gt;" style="rounded=1;whiteSpace=wrap;html=1;absoluteArcSize=1;arcSize=14;strokeWidth=2;" vertex="1" parent="1">
          <mxGeometry x="154" y="110" width="520" height="100" as="geometry" />
        </mxCell>
        <mxCell id="8A1eNJOHPVuHeKG6YOcv-35" style="edgeStyle=orthogonalEdgeStyle;rounded=0;orthogonalLoop=1;jettySize=auto;html=1;exitX=0.5;exitY=1;exitDx=0;exitDy=0;exitPerimeter=0;entryX=0.5;entryY=0;entryDx=0;entryDy=0;" edge="1" parent="1" source="8A1eNJOHPVuHeKG6YOcv-6" target="8A1eNJOHPVuHeKG6YOcv-34">
          <mxGeometry relative="1" as="geometry" />
        </mxCell>
        <mxCell id="8A1eNJOHPVuHeKG6YOcv-6" value="Download&lt;div&gt;OR&lt;/div&gt;&lt;div&gt;View&lt;/div&gt;" style="strokeWidth=2;html=1;shape=mxgraph.flowchart.decision;whiteSpace=wrap;" vertex="1" parent="1">
          <mxGeometry x="364" y="370" width="100" height="100" as="geometry" />
        </mxCell>
        <mxCell id="8A1eNJOHPVuHeKG6YOcv-29" value="&lt;div&gt;2019 to latest&lt;/div&gt;&lt;div&gt;is priority time publish sort&lt;/div&gt;" style="rounded=1;whiteSpace=wrap;html=1;absoluteArcSize=1;arcSize=14;strokeWidth=2;" vertex="1" parent="1">
          <mxGeometry x="326" y="240" width="176" height="100" as="geometry" />
        </mxCell>
        <mxCell id="8A1eNJOHPVuHeKG6YOcv-31" style="edgeStyle=orthogonalEdgeStyle;rounded=0;orthogonalLoop=1;jettySize=auto;html=1;exitX=0.5;exitY=1;exitDx=0;exitDy=0;entryX=0.5;entryY=0;entryDx=0;entryDy=0;entryPerimeter=0;" edge="1" parent="1" source="8A1eNJOHPVuHeKG6YOcv-29" target="8A1eNJOHPVuHeKG6YOcv-6">
          <mxGeometry relative="1" as="geometry" />
        </mxCell>
        <mxCell id="8A1eNJOHPVuHeKG6YOcv-34" value="- Google Scholar&lt;div&gt;- IEEE Xplore&lt;/div&gt;&lt;div&gt;- Science Direct&lt;/div&gt;&lt;div&gt;- ResearchGate&lt;/div&gt;&lt;div&gt;- Springer&lt;/div&gt;&lt;div&gt;- arXiv&lt;/div&gt;&lt;div&gt;- Open Library Repo by Campuses&lt;/div&gt;&lt;div&gt;- other open sources&lt;/div&gt;" style="rounded=1;whiteSpace=wrap;html=1;absoluteArcSize=1;arcSize=14;strokeWidth=2;align=left;" vertex="1" parent="1">
          <mxGeometry x="304" y="500" width="220" height="150" as="geometry" />
        </mxCell>
        <mxCell id="8A1eNJOHPVuHeKG6YOcv-37" style="edgeStyle=orthogonalEdgeStyle;rounded=0;orthogonalLoop=1;jettySize=auto;html=1;exitX=0.5;exitY=1;exitDx=0;exitDy=0;exitPerimeter=0;entryX=0.5;entryY=0;entryDx=0;entryDy=0;" edge="1" parent="1" source="8A1eNJOHPVuHeKG6YOcv-36" target="8A1eNJOHPVuHeKG6YOcv-1">
          <mxGeometry relative="1" as="geometry" />
        </mxCell>
        <mxCell id="8A1eNJOHPVuHeKG6YOcv-36" value="" style="strokeWidth=2;html=1;shape=mxgraph.flowchart.start_2;whiteSpace=wrap;" vertex="1" parent="1">
          <mxGeometry x="394" y="40" width="40" height="40" as="geometry" />
        </mxCell>
      </root>
    </mxGraphModel>
  </diagram>
</mxfile>
